<svg width="94" height="39" viewBox="0 0 94 39" fill="none" xmlns="http://www.w3.org/2000/svg">
<path d="M77.9552 9.55233C77.889 9.55233 77.8006 9.55233 77.7344 9.55233C77.5135 9.55233 77.3369 9.7268 77.3369 9.94489C77.3369 11.297 77.3369 15.8114 77.3369 17.1853C77.3369 17.4034 77.5135 17.5779 77.7344 17.5779C77.8006 17.5779 77.889 17.5779 77.9552 17.5779C78.176 17.5779 78.3527 17.4034 78.3527 17.1853C78.3527 15.8332 78.3527 11.3188 78.3527 9.94489C78.3527 9.7268 78.176 9.55233 77.9552 9.55233ZM79.9648 8.26562C79.8986 8.26562 79.8102 8.26562 79.744 8.26562C79.6336 8.26562 79.5452 8.30924 79.4569 8.37467C79.3906 8.44009 79.3465 8.54914 79.3465 8.65818C79.3465 10.3156 79.3465 16.8146 79.3465 18.4938C79.3465 18.6029 79.3906 18.6901 79.4569 18.7774C79.5231 18.8428 79.6336 18.8864 79.744 18.8864C79.8102 18.8864 79.8986 18.8864 79.9648 18.8864C80.0752 18.8864 80.1636 18.8428 80.2519 18.7774C80.3181 18.7119 80.3623 18.6029 80.3623 18.4938C80.3623 16.8364 80.3623 10.3374 80.3623 8.65818C80.3623 8.54914 80.3181 8.4619 80.2519 8.37467C80.1856 8.28743 80.0752 8.26562 79.9648 8.26562ZM71.8823 11.6896C71.816 11.6896 71.7277 11.6896 71.6614 11.6896C71.4406 11.6896 71.2639 11.864 71.2639 12.0821C71.2639 12.8018 71.2639 14.3284 71.2639 15.0481C71.2639 15.2662 71.4406 15.4406 71.6614 15.4406C71.7277 15.4406 71.816 15.4406 71.8823 15.4406C72.1031 15.4406 72.2798 15.2662 72.2798 15.0481C72.2798 14.3284 72.2798 12.8018 72.2798 12.0821C72.2798 11.864 72.1031 11.6896 71.8823 11.6896ZM73.9139 10.1848C73.8477 10.1848 73.7594 10.1848 73.6931 10.1848C73.5827 10.1848 73.4943 10.2284 73.406 10.2938C73.3398 10.3592 73.2956 10.4683 73.2956 10.5773C73.2956 11.7768 73.2956 15.3752 73.2956 16.5747C73.2956 16.6837 73.3398 16.771 73.406 16.8582C73.4723 16.9236 73.5827 16.9672 73.6931 16.9672C73.7594 16.9672 73.8477 16.9672 73.9139 16.9672C74.0244 16.9672 74.1127 16.9236 74.201 16.8582C74.2673 16.7928 74.3114 16.6837 74.3114 16.5747C74.3114 15.3752 74.3114 11.7768 74.3114 10.5773C74.3114 10.4683 74.2673 10.3811 74.201 10.2938C74.1127 10.2284 74.0023 10.1848 73.9139 10.1848ZM75.9235 11.6896C75.8573 11.6896 75.7689 11.6896 75.7027 11.6896C75.4819 11.6896 75.3052 11.864 75.3052 12.0821C75.3052 12.8018 75.3052 14.3284 75.3052 15.0481C75.3052 15.2662 75.4819 15.4406 75.7027 15.4406C75.7689 15.4406 75.8573 15.4406 75.9235 15.4406C76.1444 15.4406 76.321 15.2662 76.321 15.0481C76.321 14.3284 76.321 12.8018 76.321 12.0821C76.321 11.864 76.1444 11.6896 75.9235 11.6896ZM81.9965 10.9481C81.9302 10.9481 81.8419 10.9481 81.7757 10.9481C81.5548 10.9481 81.3782 11.1225 81.3782 11.3406C81.3782 12.322 81.3782 14.83 81.3782 15.8114C81.3782 16.0295 81.5548 16.2039 81.7757 16.2039C81.8419 16.2039 81.9302 16.2039 81.9965 16.2039C82.2173 16.2039 82.394 16.0295 82.394 15.8114C82.394 14.83 82.394 12.322 82.394 11.3406C82.394 11.1225 82.2173 10.9481 81.9965 10.9481ZM88.0695 11.6896C88.0032 11.6896 87.9149 11.6896 87.8486 11.6896C87.6278 11.6896 87.4511 11.864 87.4511 12.0821C87.4511 12.8018 87.4511 14.3284 87.4511 15.0481C87.4511 15.2662 87.6278 15.4406 87.8486 15.4406C87.9149 15.4406 88.0032 15.4406 88.0695 15.4406C88.2903 15.4406 88.467 15.2662 88.467 15.0481C88.467 14.3284 88.467 12.8018 88.467 12.0821C88.467 11.864 88.2903 11.6896 88.0695 11.6896ZM84.0282 11.6896C83.9619 11.6896 83.8736 11.6896 83.8073 11.6896C83.5865 11.6896 83.4098 11.864 83.4098 12.0821C83.4098 12.8018 83.4098 14.3284 83.4098 15.0481C83.4098 15.2662 83.5865 15.4406 83.8073 15.4406C83.8736 15.4406 83.9619 15.4406 84.0282 15.4406C84.249 15.4406 84.4257 15.2662 84.4257 15.0481C84.4257 14.3284 84.4257 12.8018 84.4257 12.0821C84.4036 11.864 84.2269 11.6896 84.0282 11.6896ZM90.0791 12.1912C90.0128 12.1912 89.9245 12.1912 89.8582 12.1912C89.6374 12.1912 89.4607 12.3656 89.4607 12.5837C89.4607 13.1071 89.4607 14.0231 89.4607 14.5465C89.4607 14.7646 89.6374 14.9391 89.8582 14.9391C89.9245 14.9391 90.0128 14.9391 90.0791 14.9391C90.2999 14.9391 90.4766 14.7646 90.4766 14.5465C90.4766 14.0231 90.4766 13.1071 90.4766 12.5837C90.4766 12.3656 90.2999 12.1912 90.0791 12.1912ZM86.0378 10.621C85.9715 10.621 85.8832 10.621 85.8169 10.621C85.7065 10.621 85.6182 10.6646 85.5299 10.73C85.4636 10.7954 85.4194 10.9045 85.4194 11.0135C85.4194 12.0821 85.4194 15.0263 85.4194 16.0949C85.4194 16.2039 85.4636 16.2912 85.5299 16.3784C85.5961 16.4438 85.7065 16.4875 85.8169 16.4875C85.8832 16.4875 85.9715 16.4875 86.0378 16.4875C86.1482 16.4875 86.2365 16.4438 86.3249 16.3784C86.3911 16.313 86.4353 16.2039 86.4353 16.0949C86.4353 15.0263 86.4353 12.0821 86.4353 11.0135C86.4353 10.9045 86.3911 10.8172 86.3249 10.73C86.2365 10.6646 86.1482 10.621 86.0378 10.621Z" fill="white"/>
<path d="M71.3525 4.66797C71.3746 4.68979 72.9205 5.54066 72.9205 5.54066L71.3525 6.02064V4.66797Z" fill="white"/>
<path d="M73.2738 6.50106L72.3242 6.30469L71.3525 7.352L73.2738 6.50106Z" fill="white"/>
<path d="M71.3525 4.66797L72.4346 5.10435L72.9205 5.54073L71.3525 4.66797Z" fill="white"/>
<path d="M72.788 4.08203L71.3525 4.67063L72.4346 5.10663L72.788 4.08203Z" fill="white"/>
<path d="M73.031 4.66797L72.4346 5.10435L72.9205 5.54073L73.031 4.66797Z" fill="white"/>
<path d="M72.788 4.08203L73.031 4.67063L72.4346 5.10663L72.788 4.08203Z" fill="white"/>
<path d="M72.0813 3.86328L72.788 4.08143L71.3525 4.67043L72.0813 3.86328Z" fill="white"/>
<path d="M71.3525 4.67043L72.0812 3.86328L71.3525 4.01598V4.67043Z" fill="white"/>
<path d="M73.2738 6.5L73.1634 6.80533L71.3525 7.52502L73.2738 6.5Z" fill="white"/>
<path d="M73.1187 6.80469L73.1628 7.52477L72.9199 6.80469H73.1187Z" fill="white"/>
<path d="M72.6992 7.00107L73.1629 7.52477L72.92 6.80469L72.6992 7.00107Z" fill="white"/>
<path d="M72.5229 7.06641L72.9867 8.15662L72.1475 7.11001L72.5229 7.06641Z" fill="white"/>
<path d="M72.9204 9.24649L72.1475 7.10938L72.9867 8.15612L72.9204 9.24649Z" fill="white"/>
<path d="M72.1474 7.10938L71.5732 7.43648L72.9202 9.24649L72.1474 7.10938Z" fill="white"/>
<path d="M71.3517 4.66796L70.2695 4.40625L71.3517 6.02012V4.66796Z" fill="white"/>
<path d="M69.4082 7.02327L70.2695 4.40625L71.3516 6.02008L69.4082 7.02327Z" fill="white"/>
<path d="M70.0487 7.96139L69.4082 7.02344L71.3516 7.35063L70.0487 7.96139Z" fill="white"/>
<path d="M71.3526 4.01421L70.3809 3.57812L71.3526 4.66834V4.01421Z" fill="white"/>
<path d="M70.2695 4.40669L70.38 3.57812L71.3517 4.66834L70.2695 4.40669Z" fill="white"/>
<path d="M68.5029 4.03627L69.5408 3.57812L70.2696 4.40714L68.5029 4.03627Z" fill="white"/>
<path d="M70.3804 3.57812H69.5411L70.2699 4.40714L70.3804 3.57812Z" fill="white"/>
<path d="M67.9512 5.54029L70.27 4.40625L69.4087 7.02327L67.9512 5.54029Z" fill="white"/>
<path d="M68.5033 4.03516L67.9512 5.54051L70.27 4.40604L68.5033 4.03516Z" fill="white"/>
<path d="M65.3235 5.32447L66.4055 4.80106L64.7715 3.86328L65.3235 5.32447Z" fill="white"/>
<path d="M66.7367 5.38825L66.4938 5.19141L65.3232 5.32264L66.7367 5.38825Z" fill="white"/>
<path d="M66.8027 5.01562L66.4936 5.19012L65.3232 5.32098L66.8027 5.01562Z" fill="white"/>
<path d="M66.8465 5.19141L66.7361 5.38825L66.4932 5.19141H66.8465Z" fill="white"/>
<path d="M66.8023 5.01562L66.8465 5.19018H66.4932L66.8023 5.01562Z" fill="white"/>
<path d="M66.8469 5.19018L66.8027 5.01562L67.1562 5.03744L66.8469 5.19018Z" fill="white"/>
<path d="M67.1559 5.45345L66.8467 5.19141L66.7363 5.38794L67.1559 5.45345Z" fill="white"/>
<path d="M67.1559 5.03906V5.45378L66.8467 5.19185L67.1559 5.03906Z" fill="white"/>
<path d="M67.1562 5.03906V5.45358L67.9511 5.54085L67.1562 5.03906Z" fill="white"/>
<path d="M67.1562 5.03873L67.9513 5.54051L68.5034 4.03516L67.1562 5.03873Z" fill="white"/>
<path d="M66.8252 3.57812L67.1565 5.03974L68.5036 4.03624L66.8252 3.57812Z" fill="white"/>
<path d="M66.8028 5.01792L67.1562 5.03974L66.8249 3.57812L66.8028 5.01792Z" fill="white"/>
<path d="M66.8028 5.01745L66.8249 3.57812L64.7712 3.86163" fill="white"/>
<path d="M67.1562 5.04017L66.8027 4.84375V5.01835L67.1562 5.04017Z" fill="white"/>
<path d="M66.8027 4.84436L66.4053 4.80078L66.8027 5.01866V4.84436Z" fill="white"/>
<path d="M69.0991 9.24729L68.3262 10.6427L68.5029 8.89844L69.0991 9.24729Z" fill="white"/>
<path d="M67.6201 13.1757L67.8852 11.8672L67.6201 12.3906V13.1757Z" fill="white"/>
<path d="M69.4083 7.02344L68.5029 8.89908L69.0991 9.24803L69.4083 7.02344Z" fill="white"/>
<path d="M67.9517 5.54297L67.7529 7.35327L69.4091 7.0261L67.9517 5.54297Z" fill="white"/>
<path d="M67.002 8.98852L67.4878 7.41797L68.5036 8.90127L67.002 8.98852Z" fill="white"/>
<path d="M69.4091 7.02344L68.5037 8.89893L67.7529 7.35056L69.4091 7.02344Z" fill="white"/>
<path d="M68.327 10.6427L68.5036 8.89844L67.002 8.98565L68.327 10.6427Z" fill="white"/>
<path d="M67.2007 11.2562L67.002 8.98828L68.3269 10.6456L67.2007 11.2562Z" fill="white"/>
<path d="M67.1562 5.45312L67.9512 5.54031L67.1562 5.82368V5.45312Z" fill="white"/>
<path d="M67.1559 5.45599L66.7363 5.39062L67.1559 5.82638V5.45599Z" fill="white"/>
<path d="M65.3232 5.32422L67.1563 5.826L66.7367 5.38967L65.3232 5.32422Z" fill="white"/>
<path d="M67.4875 7.41846L67.1562 5.82647L67.9512 5.54297L67.4875 7.41846Z" fill="white"/>
<path d="M62.6074 4.56116L65.3236 5.32447L64.7715 3.86328L62.6074 4.56116Z" fill="white"/>
<path d="M67.4875 7.41801L65.3232 5.32422L67.1562 5.82586L67.4875 7.41801Z" fill="white"/>
<path d="M65.3236 5.322L64.1091 6.54344L62.6074 4.55859L65.3236 5.322Z" fill="white"/>
<path d="M64.1086 6.54344L62.6069 4.55859L60.6855 5.322L64.1086 6.54344Z" fill="white"/>
<path d="M64.1084 6.54559L65.323 5.32422L67.4871 7.41801L64.1084 6.54559Z" fill="white"/>
<path d="M65.1463 8.15684L64.1084 6.54297L67.4871 7.41533L65.1463 8.15684Z" fill="white"/>
<path d="M61.8781 7.11264L60.6855 5.32422L64.1086 6.54558L61.8781 7.11264Z" fill="white"/>
<path d="M71.3516 7.34992V6.01953L69.4082 7.02277L71.3516 7.34992Z" fill="white"/>
<path d="M72.3242 6.30306L71.3525 6.01953V7.34992L72.3242 6.30306Z" fill="white"/>
<path d="M69.0996 9.24803L70.0492 7.96126L69.4088 7.02344L69.0996 9.24803Z" fill="white"/>
<path d="M71.3518 7.52734L70.1813 8.13807L70.0488 7.96357L71.3518 7.52734Z" fill="white"/>
<path d="M69.0996 9.248L70.1817 8.13545L70.0492 7.96094L69.0996 9.248Z" fill="white"/>
<path d="M72.9204 5.54297L73.2737 6.50238L72.3242 6.30613L72.9204 5.54297Z" fill="white"/>
<path d="M71.3525 6.02256L72.9205 5.54297L72.3242 6.30595L71.3525 6.02256Z" fill="white"/>
<path d="M72.9199 5.53916L73.0966 4.64453L73.0303 4.66635L72.9199 5.53916Z" fill="white"/>
<path d="M72.7871 4.08203L73.0963 4.64867L73.03 4.67046L72.7871 4.08203Z" fill="white"/>
<path d="M68.5036 3.92711L66.8252 3.57812L68.5036 4.03617V3.92711Z" fill="white"/>
<path d="M69.5408 3.57812L68.5029 3.92711V4.03617L69.5408 3.57812Z" fill="white"/>
<path d="M72.788 4.08203L72.4346 5.10663L72.5008 5.06303L72.788 4.08203Z" fill="white"/>
<path d="M72.4346 5.10609L72.5008 5.0625L72.9205 5.54199L72.4346 5.10609Z" fill="white"/>
<path d="M73.2732 6.50238L73.3395 6.43696L72.9199 5.54297L73.2732 6.50238Z" fill="white"/>
<path d="M73.1631 6.80415L73.3397 6.43359L73.2735 6.49899L73.1631 6.80415Z" fill="white"/>
<path d="M68.3262 10.6456L68.4366 10.6674L69.0991 9.25L68.3262 10.6456Z" fill="white"/>
<path d="M67.8849 11.866L68.437 10.6663L68.3266 10.6445L67.8849 11.866Z" fill="white"/>
<path d="M67.0014 8.98852L65.1465 8.15962L67.4873 7.41797L67.0014 8.98852Z" fill="white"/>
<path d="M65.1465 8.15625L67.0015 8.98501L65.3231 10.817L65.1465 8.15625Z" fill="white"/>
<path d="M67.2003 11.2562L65.3232 10.8201L67.0016 8.98828L67.2003 11.2562Z" fill="white"/>
<path d="M67.8849 11.866L67.2003 11.2553L68.3265 10.6445L67.8849 11.866Z" fill="white"/>
<path d="M67.6198 12.3879L67.2002 11.2539L67.8848 11.8645L67.6198 12.3879Z" fill="white"/>
<path d="M65.3232 10.8203L67.6199 12.3909L67.2003 11.2566L65.3232 10.8203Z" fill="white"/>
<path d="M66.0741 13.4373L65.3232 10.8203L67.6199 12.3905L66.0741 13.4373Z" fill="white"/>
<path d="M67.4875 14.9857L67.62 13.1758L66.0742 13.4374L67.4875 14.9857Z" fill="white"/>
<path d="M67.62 12.3906V13.1758L66.0742 13.4375L67.62 12.3906Z" fill="white"/>
<path d="M67.4873 14.9859L68.0174 15.8147L67.6198 13.1758L67.4873 14.9859Z" fill="white"/>
<path d="M67.6199 17.0121L67.4874 14.9844L68.0175 15.8129L67.6199 17.0121Z" fill="white"/>
<path d="M69.1661 17.4482L68.0176 15.8125L67.6201 17.012L69.1661 17.4482Z" fill="white"/>
<path d="M68.106 18.4077L67.6201 17.0117L69.1661 17.448L68.106 18.4077Z" fill="white"/>
<path d="M69.5187 18.0598L69.1654 17.4492L68.1055 18.4086L69.5187 18.0598Z" fill="white"/>
<path d="M69.5187 18.0586L68.1055 18.4075L68.3925 19.3671L69.5187 18.0586Z" fill="white"/>
<path d="M67.3105 19.37H68.3927L68.1056 18.4102L67.3105 19.37Z" fill="white"/>
<path d="M66.0742 18.6501L67.3109 19.37L68.106 18.4102L66.0742 18.6501Z" fill="white"/>
<path d="M66.0078 17.9297L66.0741 18.6489L68.1058 18.4092L66.0078 17.9297Z" fill="white"/>
<path d="M67.62 17.0117L66.0078 17.9278L68.1058 18.4077L67.62 17.0117Z" fill="white"/>
<path d="M65.7207 16.1172L66.0078 17.9275L67.6197 17.0114L65.7207 16.1172Z" fill="white"/>
<path d="M64.2852 16.8369L65.7207 16.1172L66.0078 17.9275L64.2852 16.8369Z" fill="white"/>
<path d="M64.3072 17.0578L66.0078 17.9296L64.2852 16.8398L64.3072 17.0578Z" fill="white"/>
<path d="M67.4873 14.9844L65.7208 16.1182L67.6198 17.0121L67.4873 14.9844Z" fill="white"/>
<path d="M66.074 13.4336L65.7207 16.1167L67.4874 14.9824L66.074 13.4336Z" fill="white"/>
<path d="M64.2855 16.8398L61.79 18.5841L64.3076 17.0579L64.2855 16.8398Z" fill="white"/>
<path d="M65.3228 10.8203L66.0736 13.4373L64.042 13.0884L65.3228 10.8203Z" fill="white"/>
<path d="M65.7203 16.1177L64.042 13.0859L66.0736 13.4349L65.7203 16.1177Z" fill="white"/>
<path d="M64.2857 16.8385L63.6895 15.2461L65.7211 16.1187L64.2857 16.8385Z" fill="white"/>
<path d="M64.0428 13.0859L63.6895 15.2452L65.7211 16.1177L64.0428 13.0859Z" fill="white"/>
<path d="M69.166 17.4492L69.7181 17.6673L69.5193 18.0599" fill="white"/>
<path d="M67.6201 13.1758L68.2386 15.7711L68.0177 15.8147L67.6201 13.1758Z" fill="white"/>
<path d="M68.2384 15.7695L69.1658 17.4486L68.0176 15.8131L68.2384 15.7695Z" fill="white"/>
<path d="M68.2383 15.7695L69.1657 17.4484L69.7178 17.6665L68.2383 15.7695Z" fill="white"/>
<path d="M68.7466 16.4451L69.0999 15.8125L68.5479 16.336L68.7466 16.4451Z" fill="white"/>
<path d="M68.459 16.0305L69.0995 15.8125L68.5473 16.3357L68.459 16.0305Z" fill="white"/>
<path d="M70.7554 15.6172L69.1875 17.2744L70.4021 16.642L70.7554 15.6172Z" fill="white"/>
<path d="M69.1878 17.2744L68.9229 16.6638L70.7558 15.6172L69.1878 17.2744Z" fill="white"/>
<path d="M69.5408 17.4692L70.4021 16.6406L69.1875 17.273L69.5408 17.4692Z" fill="white"/>
<path d="M65.3236 10.817L63.292 9.37759L65.147 8.15625L65.3236 10.817Z" fill="white"/>
<path d="M64.1091 6.54297L63.292 9.37829L65.1471 8.15692L64.1091 6.54297Z" fill="white"/>
<path d="M61.8779 7.11003L63.2913 9.37829L64.1084 6.54297L61.8779 7.11003Z" fill="white"/>
<path d="M60.6858 5.32422L60.1999 7.02558L58.9854 6.91652L60.6858 5.32422Z" fill="white"/>
<path d="M61.8785 7.11264L60.2002 7.02541L60.686 5.32422L61.8785 7.11264Z" fill="white"/>
<path d="M57.9033 7.83015L58.9854 6.91406L60.2001 7.02312L57.9033 7.83015Z" fill="white"/>
<path d="M60.2001 8.61586V7.02344L57.9033 7.83056L60.2001 8.61586Z" fill="white"/>
<path d="M61.8785 7.11069L60.2002 8.61586V7.02344L61.8785 7.11069Z" fill="white"/>
<path d="M63.2919 9.37772L60.2002 8.61433L61.8785 7.10938L63.2919 9.37772Z" fill="white"/>
<path d="M63.2912 9.37891L65.3227 10.8182L62.96 10.949L63.2912 9.37891Z" fill="white"/>
<path d="M64.042 13.0887L62.96 10.9512L65.3227 10.8203L64.042 13.0887Z" fill="white"/>
<path d="M63.6892 15.2461L61.79 18.5832L64.2855 16.8383L63.6892 15.2461Z" fill="white"/>
<path d="M61.6133 14.5907L64.0425 13.0859L63.6892 15.2449L61.6133 14.5907Z" fill="white"/>
<path d="M60.6641 16.3345L63.6896 15.2441L61.6137 14.5898L60.6641 16.3345Z" fill="white"/>
<path d="M59.2948 18.7148L56.0264 22.4877L55.916 21.9643L59.2948 18.7148Z" fill="white"/>
<path d="M61.7894 18.582L59.6915 20.0655L59.4707 19.8692L61.7894 18.582Z" fill="white"/>
<path d="M58.2568 22.0266L59.4714 19.8672L59.6923 20.0635L58.2568 22.0266Z" fill="white"/>
<path d="M60.6641 16.3367L61.7904 18.5832L63.6896 15.2461L60.6641 16.3367Z" fill="white"/>
<path d="M60.6631 16.3359L59.2939 18.7132L61.7893 18.5824L60.6631 16.3359Z" fill="white"/>
<path d="M59.4706 19.8687L59.2939 18.7129L61.7893 18.582L59.4706 19.8687Z" fill="white"/>
<path d="M56.0264 22.4877L58.2568 22.0297L59.2947 18.7148L56.0264 22.4877Z" fill="white"/>
<path d="M59.4714 19.8708L59.2948 18.7148L58.2568 22.0301L59.4714 19.8708Z" fill="white"/>
<path d="M57.793 23.2707L58.2567 22.0273L56.0264 22.4854L57.793 23.2707Z" fill="white"/>
<path d="M57.793 23.2701L56.0264 22.4844L53.2881 23.2701H57.793Z" fill="white"/>
<path d="M50.748 19.2383L53.3539 23.2732H50.748V19.2383Z" fill="white"/>
<path d="M53.2881 23.2738L55.9159 21.9648L56.0264 22.4884L53.2881 23.2738Z" fill="white"/>
<path d="M50.748 19.2383L55.9156 21.9646L53.3318 23.2732L50.748 19.2383Z" fill="white"/>
<path d="M55.0323 18.6484L55.9156 21.9637L50.748 19.2373L55.0323 18.6484Z" fill="white"/>
<path d="M59.2945 18.7139L55.0322 18.6484L55.9156 21.9637L59.2945 18.7139Z" fill="white"/>
<path d="M50.748 11.6055L52.7355 13.4375L50.748 14.5935V11.6055Z" fill="white"/>
<path d="M55.0322 18.6475L50.748 16.2266V19.2364L55.0322 18.6475Z" fill="white"/>
<path d="M52.7355 13.4336L50.748 16.2256V14.5897L52.7355 13.4336Z" fill="white"/>
<path d="M55.3856 15.244L50.748 16.2256L52.7356 13.4336L55.3856 15.244Z" fill="white"/>
<path d="M55.0322 18.6484L55.3856 15.2461L50.748 16.2275L55.0322 18.6484Z" fill="white"/>
<path d="M59.2945 18.714L55.3856 15.2461L55.0322 18.6486L59.2945 18.714Z" fill="white"/>
<path d="M60.6637 16.3366L55.3857 15.2461L59.2946 18.714L60.6637 16.3366Z" fill="white"/>
<path d="M53.2878 10.9492L50.748 11.6035L52.7357 13.4354L53.2878 10.9492Z" fill="white"/>
<path d="M55.3854 12.5195L52.7354 13.4354L53.2874 10.9492L55.3854 12.5195Z" fill="white"/>
<path d="M55.3854 15.2451V12.5195L52.7354 13.4353L55.3854 15.2451Z" fill="white"/>
<path d="M57.594 13.4353L55.3857 12.5195V15.2451L57.594 13.4353Z" fill="white"/>
<path d="M60.6637 16.3341L57.5941 13.4336L55.3857 15.2437L60.6637 16.3341Z" fill="white"/>
<path d="M61.6132 14.5894L59.8906 13.4336L60.6636 16.3341L61.6132 14.5894Z" fill="white"/>
<path d="M57.5938 13.4336H59.8904L60.6633 16.3341L57.5938 13.4336Z" fill="white"/>
<path d="M59.8906 13.4353L61.8782 12.5195L61.6132 14.591L59.8906 13.4353Z" fill="white"/>
<path d="M64.0425 13.0865L61.8783 12.5195L61.6133 14.591L64.0425 13.0865Z" fill="white"/>
<path d="M62.96 10.9492L61.8779 12.5193L64.0422 13.0863L62.96 10.9492Z" fill="white"/>
<path d="M60.3544 12.0195L59.8906 13.437L61.8782 12.5211L60.3544 12.0195Z" fill="white"/>
<path d="M57.5938 13.4381L58.985 11.7148L59.8904 13.4381H57.5938Z" fill="white"/>
<path d="M55.3857 12.5219L57.042 11.7148L57.594 13.4381L55.3857 12.5219Z" fill="white"/>
<path d="M61.6134 10.1211L60.0013 11.7131L59.8467 11.3424L61.6134 10.1211Z" fill="white"/>
<path d="M56.4015 11.2539C56.3794 11.2539 59.8245 11.3411 59.8245 11.3411L59.9791 11.7334L56.4015 11.2539Z" fill="white"/>
<path d="M56.1143 11.7115L56.4014 11.2539L60.0011 11.7115H56.1143Z" fill="white"/>
<path d="M53.9062 10.4492L56.4017 11.2561L56.1146 11.714L53.9062 10.4492Z" fill="white"/>
<path d="M57.9034 7.83203L56.2031 9.24988L55.8057 8.98812L57.9034 7.83203Z" fill="white"/>
<path d="M54.0605 9.2499H56.2026L55.8051 8.98828L54.0605 9.2499Z" fill="white"/>
<path d="M53.9062 10.4494L54.0608 9.25L56.4017 11.2563L53.9062 10.4494Z" fill="white"/>
<path d="M56.2026 9.25H54.0605L56.4013 11.2563L56.2026 9.25Z" fill="white"/>
<path d="M59.8469 11.3434L56.2031 9.25L56.4019 11.2561L59.8469 11.3434Z" fill="white"/>
<path d="M60.2003 8.61731L56.2031 9.2499L57.9036 7.83203L60.2003 8.61731Z" fill="white"/>
<path d="M59.7585 10.0132L56.2031 9.25L59.8469 11.3434L59.7585 10.0132Z" fill="white"/>
<path d="M60.2003 8.61719L59.7586 10.0123L56.2031 9.24937L60.2003 8.61719Z" fill="white"/>
<path d="M61.6128 10.1208L59.7578 10.0117L59.8461 11.3421L61.6128 10.1208Z" fill="white"/>
<path d="M60.1995 8.61719L59.7578 10.0123L61.6128 10.1213L60.1995 8.61719Z" fill="white"/>
<path d="M63.2919 9.38013L61.6135 10.1213L60.2002 8.61719L63.2919 9.38013Z" fill="white"/>
<path d="M61.6131 10.1211L60.001 11.7131L62.9602 10.9498L61.6131 10.1211Z" fill="white"/>
<path d="M63.2916 9.37891L62.9604 10.949L61.6133 10.1204L63.2916 9.37891Z" fill="white"/>
<path d="M61.8783 12.5198L60.3545 12.0181L62.9605 10.9492L61.8783 12.5198Z" fill="white"/>
<path d="M60.001 11.7126L62.9602 10.9492L60.3543 12.018L60.001 11.7126Z" fill="white"/>
<path d="M53.9064 10.4492L53.2881 10.9508L56.1146 11.714L53.9064 10.4492Z" fill="white"/>
<path d="M55.3859 12.5198L56.1146 11.7127L53.2881 10.9492L55.3859 12.5198Z" fill="white"/>
<path d="M56.1145 11.7148H57.0421L55.3857 12.522L56.1145 11.7148Z" fill="white"/>
<path d="M58.9853 11.7148H57.042L57.5941 13.4381L58.9853 11.7148Z" fill="white"/>
<path d="M60.3545 12.0202L58.9854 11.7148L59.8908 13.4381L60.3545 12.0202Z" fill="white"/>
<path d="M60.0012 11.7148H58.9854L60.3545 12.0202L60.0012 11.7148Z" fill="white"/>
<path d="M66.8248 3.57812L64.5724 3.73077L64.7711 3.86161L66.8248 3.57812Z" fill="white"/>
<path d="M62.6074 4.55907L64.5729 3.73047L64.7717 3.8613L62.6074 4.55907Z" fill="white"/>
<path d="M53.2878 10.9492L50.748 11.3419V11.6037L53.2878 10.9492Z" fill="white"/>
<path d="M68.5033 8.89982L67.4874 7.41698L67.7524 7.35156L68.5033 8.89982Z" fill="white"/>
<path d="M67.951 5.54297L67.7523 7.35304L67.4873 7.41846L67.951 5.54297Z" fill="white"/>
<path d="M7.13349 16.3125L6.42676 20.8925H7.81813L7.15557 16.3125H7.13349Z" fill="white"/>
<path d="M19.544 0C8.7451 0 0 8.63641 0 19.3011C0 29.9657 8.7451 38.6022 19.544 38.6022C30.3429 38.6022 39.088 29.9439 39.088 19.3011C39.088 8.65822 30.3208 0 19.544 0ZM8.39177 24.6879L8.06051 22.7033H6.18341L5.89632 24.6879H3.46712L5.71965 14.4376H8.6126L10.843 24.6879H8.39177ZM13.7139 24.6879H11.5276V17.0547H13.7139V24.6879ZM13.7139 16.2914H11.5276V14.4376H13.7139V16.2914ZM17.2252 24.6879H15.0389V17.0547H17.2252V24.6879ZM17.2252 16.2914H15.0389V14.4376H17.2252V16.2914ZM27.7812 24.6879H25.4845L25.7274 16.6622H25.7053L24.0049 24.6879H22.2161L20.5598 16.6622H20.5377L20.7586 24.6879H18.4619V14.4376H21.8628L23.0994 20.5006H23.1215L24.4024 14.4376H27.7591V24.6879H27.7812ZM31.8004 24.9278C30.1441 24.9278 28.6645 24.1427 28.6645 22.3544V21.2639H30.8949C30.8949 22.0272 30.7404 23.0959 31.8445 23.0959C32.4187 23.0959 32.6616 22.5506 32.6616 22.0708C32.6616 20.1734 28.797 20.5006 28.797 17.1202C28.797 15.2446 29.9454 14.2196 31.8225 14.2196C33.8983 14.2196 34.87 15.5935 34.87 17.5345H32.6616C32.6396 16.9893 32.6396 16.0515 31.8666 16.0515C31.447 16.0515 31.0275 16.2478 31.0275 16.7276C31.0275 18.9085 34.8921 18.058 34.8921 21.8746C34.8921 23.8374 33.7879 24.9278 31.8004 24.9278Z" fill="white"/>
<path d="M53.5306 26.3425C53.7956 26.4733 54.0165 26.626 54.149 26.8659C54.3035 27.084 54.3698 27.3458 54.3698 27.6511C54.3698 27.9565 54.3035 28.2182 54.149 28.4363C53.9944 28.6544 53.7956 28.8289 53.5306 28.9598C53.2656 29.0907 52.9343 29.1343 52.5589 29.1343H51.7197V30.2685H50.748V26.168H52.5589C52.9343 26.168 53.2435 26.2116 53.5306 26.3425ZM53.1552 28.1746C53.3098 28.0437 53.376 27.8692 53.376 27.6511C53.376 27.4112 53.3098 27.2367 53.1552 27.1277C53.0006 27.0186 52.7798 26.9314 52.4927 26.9314H51.6977V28.3709H52.4927C52.8018 28.3709 53.0227 28.3055 53.1552 28.1746Z" fill="white"/>
<path d="M55.9598 30.0728C55.6064 29.8983 55.3414 29.6366 55.1427 29.3095C54.9439 28.9824 54.8556 28.6117 54.8556 28.2191C54.8556 27.8048 54.9439 27.4559 55.1427 27.1288C55.3414 26.8017 55.6064 26.54 55.9598 26.3655C56.3131 26.1911 56.6886 26.082 57.1302 26.082C57.5719 26.082 57.9473 26.1693 58.3007 26.3655C58.654 26.54 58.919 26.8017 59.1178 27.1288C59.3166 27.4559 59.427 27.8266 59.427 28.2191C59.427 28.6335 59.3166 28.9824 59.1178 29.3095C58.919 29.6366 58.654 29.8983 58.3007 30.0728C57.9473 30.2472 57.5719 30.3563 57.1302 30.3563C56.6886 30.3563 56.3131 30.269 55.9598 30.0728ZM57.8148 29.3749C58.0136 29.2659 58.1682 29.1132 58.2786 28.917C58.389 28.7207 58.4553 28.4808 58.4553 28.2409C58.4553 27.9793 58.389 27.7612 58.2786 27.5649C58.1682 27.3687 58.0136 27.216 57.8148 27.107C57.6161 26.9979 57.3952 26.9325 57.1523 26.9325C56.9094 26.9325 56.6886 26.9979 56.4898 27.107C56.291 27.216 56.1365 27.3687 56.026 27.5649C55.9156 27.7612 55.8494 28.0011 55.8494 28.2409C55.8494 28.5026 55.9156 28.7207 56.026 28.917C56.1365 29.1132 56.291 29.2659 56.4898 29.3749C56.6886 29.484 56.9094 29.5494 57.1523 29.5494C57.3952 29.5494 57.6161 29.484 57.8148 29.3749Z" fill="white"/>
<path d="M66.3173 26.168L64.9481 30.2903H63.9102L62.9827 27.4985L62.0331 30.2903H60.9952L59.626 26.168H60.6197L61.5693 29.0689L62.5631 26.168H63.4685L64.4181 29.0907L65.3898 26.168H66.3173Z" fill="white"/>
<path d="M70.0934 29.5269V30.2903H66.8691V26.168H70.0051V26.9314H67.8188V27.8256H69.7622V28.5672H67.8188V29.5269H70.0934Z" fill="white"/>
<path d="M73.5158 30.2903L72.7208 29.1343H72.6546H71.8154V30.2903H70.8438V26.168H72.6546C73.03 26.168 73.3391 26.2334 73.6262 26.3425C73.8912 26.4733 74.1121 26.626 74.2446 26.8659C74.3991 27.0841 74.4654 27.3458 74.4654 27.6512C74.4654 27.9565 74.3991 28.2183 74.2446 28.4364C74.09 28.6545 73.8912 28.829 73.6041 28.938L74.5316 30.2685H73.5158V30.2903ZM73.2729 27.1277C73.1183 26.9968 72.8975 26.9314 72.6104 26.9314H71.8154V28.3709H72.6104C72.8975 28.3709 73.1183 28.3055 73.2729 28.1746C73.4275 28.0438 73.4937 27.8693 73.4937 27.6512C73.4937 27.433 73.4275 27.2585 73.2729 27.1277Z" fill="white"/>
<path d="M78.4635 29.5269V30.2903H75.2393V26.168H78.3973V26.9314H76.1889V27.8256H78.1323V28.5672H76.1889V29.5269H78.4635Z" fill="white"/>
<path d="M89.0407 28.5236C89.1732 28.6981 89.2394 28.9162 89.2394 29.178C89.2394 29.5488 89.1069 29.8105 88.8198 30.0068C88.5328 30.2031 88.1132 30.2903 87.5832 30.2903H85.4189V26.168H87.4507C87.9586 26.168 88.3561 26.2552 88.6211 26.4515C88.8861 26.6478 89.0186 26.9096 89.0186 27.2367C89.0186 27.433 88.9744 27.6075 88.864 27.782C88.7757 27.9347 88.6211 28.0656 88.4665 28.1528C88.7094 28.2183 88.9082 28.3491 89.0407 28.5236ZM86.3685 26.8878V27.8693H87.3181C87.5611 27.8693 87.7377 27.8256 87.8702 27.7384C88.0027 27.6512 88.0469 27.5421 88.0469 27.3676C88.0469 27.1931 87.9807 27.0841 87.8702 26.9968C87.7377 26.9096 87.5611 26.8659 87.3181 26.8659H86.3685V26.8878ZM88.069 29.4397C88.2015 29.3525 88.2678 29.2216 88.2678 29.0471C88.2678 28.6981 88.0027 28.5454 87.4948 28.5454H86.3685V29.5706H87.4948C87.7598 29.5706 87.9365 29.5269 88.069 29.4397Z" fill="white"/>
<path d="M79.2363 26.168H81.1355C81.5993 26.168 81.9968 26.2552 82.328 26.4297C82.6814 26.6042 82.9464 26.8441 83.1451 27.1495C83.3439 27.4549 83.4322 27.8257 83.4322 28.2401C83.4322 28.6545 83.3439 29.0035 83.1451 29.3307C82.9464 29.6579 82.6814 29.876 82.328 30.0505C81.9747 30.225 81.5772 30.3122 81.1355 30.3122H79.2363V26.168ZM81.0914 29.5052C81.5109 29.5052 81.8422 29.3961 82.0851 29.1562C82.328 28.9163 82.4605 28.6109 82.4605 28.2183C82.4605 27.8257 82.328 27.5203 82.0851 27.2804C81.8422 27.0404 81.5109 26.9314 81.0914 26.9314H80.208V29.4834H81.0914V29.5052Z" fill="white"/>
<path d="M91.8894 28.829V30.2903H90.9178V28.8072L89.3057 26.168H90.3215L91.4257 28.0001L92.5299 26.168H93.4795L91.8894 28.829Z" fill="white"/>
<path d="M44.0127 4.79688V33.8029" stroke="white" stroke-width="0.861406" stroke-miterlimit="10"/>
</svg>
