<svg width="16" height="16" viewBox="0 0 16 16" fill="none" xmlns="http://www.w3.org/2000/svg">
<path fill-rule="evenodd" clip-rule="evenodd" d="M15 5.889C14.7401 7.56441 13.6593 8.6554 12.0772 8.80717C11.6439 9.59935 10.9909 10.2632 10.1893 10.7264C9.58402 11.0762 8.91153 11.3015 8.21483 11.3909V14.0435H9.58397C10.0376 14.0444 10.4723 14.2165 10.793 14.5221C11.1138 14.8276 11.2944 15.2418 11.2954 15.6739C11.2954 15.7604 11.2593 15.8433 11.1951 15.9045C11.131 15.9656 11.0439 16 10.9531 16H4.10742C4.01664 16 3.92958 15.9656 3.86539 15.9045C3.80119 15.8433 3.76513 15.7604 3.76513 15.6739C3.76613 15.2418 3.94676 14.8276 4.2675 14.5221C4.58823 14.2165 5.02296 14.0444 5.47656 14.0435H6.8457V11.3909C6.149 11.3015 5.47651 11.0762 4.87127 10.7264C4.06959 10.2632 3.41661 9.59935 2.98335 8.80717C1.15795 8.63206 0 7.20674 0 5.07609V2.46739C0 2.33767 0.0540931 2.21325 0.150379 2.12152C0.246666 2.02979 0.377258 1.97826 0.513427 1.97826H2.39599V1.32609C2.39599 1.2396 2.43206 1.15666 2.49625 1.09551C2.56044 1.03436 2.6475 1 2.73828 1H10.1669C10.0843 1.31962 10.0404 1.6547 10.0404 2C10.0404 3.72174 11.1326 5.18942 12.6645 5.75322V6.54348C12.6629 6.9424 12.6098 7.33963 12.5064 7.7262C13.4036 7.43991 13.7821 6.68318 13.9356 5.99822C13.9757 5.9994 14.0161 6 14.0565 6C14.3815 6 14.6974 5.96156 15 5.889ZM1.02685 5.07609V2.95652H2.39599V6.54348C2.39758 6.9424 2.45069 7.33963 2.55413 7.7262C1.198 7.29348 1.02685 5.78598 1.02685 5.07609Z" fill="#9159E8"/>
<circle cx="14" cy="2" r="2" fill="#F33829"/>
</svg>
