<svg width="18" height="14" viewBox="0 0 18 14" fill="none" xmlns="http://www.w3.org/2000/svg">
<path d="M17.775 3.26667C17.55 1.75 16.875 0.7 15.3 0.466667C12.825 1.04308e-07 9 0 9 0C9 0 5.175 1.04308e-07 2.7 0.466667C1.125 0.7 0.3375 1.75 0.225 3.26667C0 4.78333 0 7 0 7C0 7 0 9.21667 0.225 10.7333C0.45 12.25 1.125 13.3 2.7 13.5333C5.175 14 9 14 9 14C9 14 12.825 14 15.3 13.5333C16.875 13.1833 17.55 12.25 17.775 10.7333C18 9.21667 18 7 18 7C18 7 18 4.78333 17.775 3.26667ZM6.75 10.5V3.5L12.375 7L6.75 10.5Z" fill="white"/>
</svg>
