<svg width="13" height="14" viewBox="0 0 13 14" fill="none" xmlns="http://www.w3.org/2000/svg">
<path d="M12.257 9.1001L9.70815 7.88212C9.45602 7.76201 9.17415 7.73481 8.90622 7.80473C8.63828 7.87465 8.39924 8.03779 8.22615 8.26886L7.45671 9.30572C6.2098 8.45147 5.15223 7.31286 4.35865 5.97029L5.32065 5.14255C5.53598 4.95636 5.6881 4.69873 5.75335 4.40976C5.81859 4.1208 5.7933 3.81671 5.6814 3.54483L4.54959 0.800014C4.42935 0.508475 4.21692 0.272371 3.95012 0.133763C3.68333 -0.004845 3.37951 -0.036955 3.09278 0.0431536L0.938032 0.646017C0.640761 0.729646 0.382292 0.927779 0.211586 1.20289C0.0408795 1.47799 -0.03021 1.81097 0.0117833 2.13874C0.410814 5.12874 1.69849 7.89909 3.682 10.035C5.66552 12.1709 8.23813 13.5574 11.0146 13.9869C11.0717 13.9956 11.1293 14 11.1869 14C11.4643 13.9998 11.7338 13.9006 11.9533 13.7179C12.1728 13.5352 12.3299 13.2793 12.4 12.9903L12.959 10.6689C13.0344 10.3603 13.0052 10.0327 12.8765 9.74515C12.7478 9.4576 12.5282 9.22888 12.257 9.1001Z" fill="#9159E8"/>
</svg>
