<svg width="191" height="26" viewBox="0 0 191 26" fill="none" xmlns="http://www.w3.org/2000/svg">
<path d="M15.7393 25.9568C17.6823 25.9568 19.257 24.3976 19.257 22.475C19.257 20.5525 17.6823 18.9933 15.7393 18.9933C13.7963 18.9933 12.2216 20.5525 12.2216 22.475C12.2216 24.3976 13.7963 25.9568 15.7393 25.9568Z" fill="white"/>
<path d="M40.4823 8.32234C42.4253 8.32234 44 6.76312 44 4.84054C44 2.91797 42.4253 1.35875 40.4823 1.35875C38.5393 1.35875 36.9646 2.91797 36.9646 4.84054C36.9646 6.76312 38.5393 8.32234 40.4823 8.32234Z" fill="white"/>
<path d="M37.5233 9.36089C35.95 8.26526 33.8057 8.67456 32.7335 10.2839L28.7612 16.2284L18.9489 1.53834C18.304 0.577747 17.2428 0 16.1022 0C14.9615 0 13.9003 0.572178 13.2554 1.53834L0.600461 20.4453C-0.47169 22.0546 -0.0704892 24.2459 1.50419 25.3415C2.1012 25.7578 2.77763 25.9568 3.4431 25.9568C4.54127 25.9568 5.62437 25.4167 6.28985 24.4185L16.0967 9.77158L25.9104 24.4617C26.5553 25.4223 27.6165 26 28.7571 26C29.8977 26 30.9589 25.4278 31.6038 24.4617L38.4229 14.2585C39.5005 12.6492 39.0993 10.4579 37.5246 9.36228L37.5233 9.36089Z" fill="white"/>
<path d="M61.04 21H63.96V7H61.04V21ZM70.76 21.2C73.38 21.2 75.98 19.58 75.98 15.8C75.98 12.02 73.38 10.4 70.76 10.4C68.14 10.4 65.54 12.02 65.54 15.8C65.54 19.58 68.14 21.2 70.76 21.2ZM68.28 15.8C68.28 13.74 69.36 12.82 70.76 12.82C72.16 12.82 73.24 13.74 73.24 15.8C73.24 17.86 72.16 18.78 70.76 18.78C69.36 18.78 68.28 17.86 68.28 15.8ZM80.4034 21.2C82.6834 21.2 83.5234 19.72 83.7234 19.16H83.8434V21H86.6234V13.78C86.6234 11.52 85.3634 10.4 82.2234 10.4C78.9834 10.4 77.6234 11.56 77.6234 13.6V14.08H80.3634V13.88C80.3634 12.8 81.2034 12.5 82.1434 12.5C83.0434 12.5 83.7634 12.8 83.7634 13.9V14.04C83.7634 14.62 83.4634 14.78 82.5034 14.92L80.7434 15.18C78.9434 15.44 77.0634 15.94 77.0634 18.24C77.0634 20.38 78.7034 21.2 80.4034 21.2ZM79.9834 18C79.9834 17.46 80.2834 17.02 81.1834 16.88L82.6434 16.62C83.1034 16.54 83.6034 16.46 83.7634 16.22V17.38C83.7634 18.2 82.7834 19.12 81.4034 19.12C80.4034 19.12 79.9834 18.64 79.9834 18ZM95.8139 15.1V21H98.7339V14.4C98.7339 11.7 97.1739 10.4 95.1539 10.4C93.0139 10.4 92.0139 11.8 91.8339 12.78H91.7139V10.6H88.7939V21H91.7139V15.1C91.7139 13.52 92.6739 12.82 93.8939 12.82C95.1139 12.82 95.8139 13.52 95.8139 15.1ZM105.526 21.2C108.146 21.2 110.746 19.58 110.746 15.8C110.746 12.02 108.146 10.4 105.526 10.4C102.906 10.4 100.306 12.02 100.306 15.8C100.306 19.58 102.906 21.2 105.526 21.2ZM103.046 15.8C103.046 13.74 104.126 12.82 105.526 12.82C106.926 12.82 108.006 13.74 108.006 15.8C108.006 17.86 106.926 18.78 105.526 18.78C104.126 18.78 103.046 17.86 103.046 15.8ZM112.329 24.8H115.249V19.5C115.629 20.4 116.769 21.2 118.309 21.2C120.489 21.2 122.869 19.62 122.869 15.8C122.869 11.98 120.489 10.4 118.309 10.4C116.769 10.4 115.629 11.2 115.249 12.1V10.6H112.329V24.8ZM115.129 15.8C115.129 13.76 116.329 12.82 117.609 12.82C118.909 12.82 120.109 13.76 120.109 15.8C120.109 17.84 118.909 18.78 117.609 18.78C116.329 18.78 115.129 17.84 115.129 15.8ZM128.626 21.14C129.206 21.14 129.766 21.06 130.226 20.94V18.76C129.806 18.8 129.626 18.8 129.406 18.8C128.326 18.8 128.086 18.26 128.086 17.46V12.86H130.146V10.6H128.086V7.92H125.166V10.6H123.406V12.86H125.166V17.88C125.166 20.2 126.546 21.14 128.626 21.14ZM131.704 21H134.624V10.6H131.704V21ZM131.564 7.78C131.564 8.68 132.324 9.38 133.164 9.38C134.004 9.38 134.764 8.68 134.764 7.78C134.764 6.86 134.004 6.16 133.164 6.16C132.324 6.16 131.564 6.86 131.564 7.78ZM141.424 21.2C144.044 21.2 146.644 19.58 146.644 15.8C146.644 12.02 144.044 10.4 141.424 10.4C138.804 10.4 136.204 12.02 136.204 15.8C136.204 19.58 138.804 21.2 141.424 21.2ZM138.944 15.8C138.944 13.74 140.024 12.82 141.424 12.82C142.824 12.82 143.904 13.74 143.904 15.8C143.904 17.86 142.824 18.78 141.424 18.78C140.024 18.78 138.944 17.86 138.944 15.8ZM155.248 15.1V21H158.168V14.4C158.168 11.7 156.608 10.4 154.588 10.4C152.448 10.4 151.448 11.8 151.268 12.78H151.148V10.6H148.228V21H151.148V15.1C151.148 13.52 152.108 12.82 153.328 12.82C154.548 12.82 155.248 13.52 155.248 15.1ZM164.139 21.2C166.659 21.2 168.799 20.2 168.799 17.88C168.799 16.04 167.439 15.28 165.799 14.92L163.839 14.5C163.139 14.36 162.759 14.02 162.759 13.5C162.759 12.94 163.219 12.58 164.219 12.58C165.219 12.58 165.899 12.96 166.019 14H168.459C168.419 11.76 166.959 10.4 164.179 10.4C161.659 10.4 159.919 11.56 159.919 13.58C159.919 14.96 160.699 16.12 162.879 16.62L164.799 17.02C165.479 17.16 165.799 17.46 165.799 17.94C165.799 18.68 165.139 19.02 164.159 19.02C163.019 19.02 162.359 18.56 162.259 17.58H159.639C159.659 19.98 161.359 21.2 164.139 21.2ZM171.973 21.2C172.953 21.2 173.753 20.44 173.753 19.46C173.753 18.5 172.953 17.72 171.973 17.72C171.013 17.72 170.213 18.5 170.213 19.46C170.213 20.44 171.013 21.2 171.973 21.2ZM178.372 21.2C180.652 21.2 181.492 19.72 181.692 19.16H181.812V21H184.592V13.78C184.592 11.52 183.332 10.4 180.192 10.4C176.952 10.4 175.592 11.56 175.592 13.6V14.08H178.332V13.88C178.332 12.8 179.172 12.5 180.112 12.5C181.012 12.5 181.732 12.8 181.732 13.9V14.04C181.732 14.62 181.432 14.78 180.472 14.92L178.712 15.18C176.912 15.44 175.032 15.94 175.032 18.24C175.032 20.38 176.672 21.2 178.372 21.2ZM177.952 18C177.952 17.46 178.252 17.02 179.152 16.88L180.612 16.62C181.072 16.54 181.572 16.46 181.732 16.22V17.38C181.732 18.2 180.752 19.12 179.372 19.12C178.372 19.12 177.952 18.64 177.952 18ZM186.665 21H189.585V10.6H186.665V21ZM186.525 7.78C186.525 8.68 187.285 9.38 188.125 9.38C188.965 9.38 189.725 8.68 189.725 7.78C189.725 6.86 188.965 6.16 188.125 6.16C187.285 6.16 186.525 6.86 186.525 7.78Z" fill="white"/>
</svg>
